<svg width="6" height="4" viewBox="0 0 6 4" fill="none" xmlns="http://www.w3.org/2000/svg">
<path d="M3.01369 3.44397C2.95706 3.44429 2.90093 3.43344 2.8485 3.41203C2.79608 3.39061 2.7484 3.35906 2.70819 3.31919L0.126541 0.737532C0.045518 0.65651 0 0.546619 0 0.432036C0 0.317453 0.045518 0.207563 0.126541 0.126541C0.207563 0.045518 0.317453 0 0.432036 0C0.546619 0 0.65651 0.045518 0.737532 0.126541L3.01369 2.407L5.28985 0.130843C5.37216 0.0603529 5.47804 0.0235184 5.58633 0.0277012C5.69462 0.031884 5.79735 0.0767759 5.87398 0.153406C5.95061 0.230035 5.9955 0.332759 5.99968 0.441049C6.00386 0.549339 5.96703 0.65522 5.89654 0.737532L3.31488 3.31919C3.23474 3.39868 3.12657 3.44349 3.01369 3.44397Z" fill="black"/>
</svg>
