<svg width="20" height="20" viewBox="0 0 20 20" fill="none" xmlns="http://www.w3.org/2000/svg">
<circle cx="10" cy="10" r="10" fill="#2C64E4"/>
<g clip-path="url(#clip0_1377_288)">
<path d="M10.7641 5.51222C10.7641 5.20369 10.5131 4.95267 10.2046 4.95267H9.3696C9.06107 4.95267 8.81006 5.20369 8.81006 5.51222V6.34877H10.7641V5.51222Z" fill="white"/>
<path d="M9.86906 8.45344L13.1125 9.3009V7.20939C13.1125 7.09235 13.0173 6.99714 12.9002 6.99714H6.67404C6.557 6.99714 6.46179 7.09235 6.46179 7.20939V9.3009L9.7052 8.45344C9.7589 8.43942 9.81534 8.43942 9.86906 8.45344Z" fill="white"/>
<path d="M14.9949 13.9734C14.6372 13.9734 14.4758 13.893 14.2715 13.7913C14.1756 13.7435 14.0744 13.6932 13.9537 13.6503C13.7861 13.5907 13.5807 13.5455 13.2993 13.5416L14.4861 10.554C14.5124 10.4831 14.4914 10.424 14.4764 10.395C14.4613 10.3658 14.4249 10.3138 14.3508 10.2944L9.78714 9.102L5.22355 10.2944C5.14934 10.3138 5.11298 10.3658 5.09792 10.395C5.08294 10.4241 5.06191 10.4832 5.08826 10.5541L6.27237 13.5416C5.99106 13.5458 5.7859 13.5913 5.61843 13.6511C5.49874 13.6938 5.39824 13.7438 5.30292 13.7913C5.09856 13.893 4.93717 13.9734 4.57938 13.9734C4.40038 13.9734 4.25525 14.1186 4.25525 14.2976C4.25525 14.4766 4.40038 14.6217 4.57938 14.6217C5.08962 14.6217 5.35645 14.4889 5.59185 14.3716C5.68359 14.326 5.76676 14.2847 5.86281 14.253C5.98077 14.214 6.11819 14.1895 6.31539 14.1895C6.3604 14.1895 6.40228 14.1908 6.44157 14.1933C6.71444 14.2101 6.86028 14.2827 7.03893 14.3717C7.27434 14.4889 7.54116 14.6217 8.0514 14.6217C8.56161 14.6217 8.82841 14.4889 9.06385 14.3717C9.26818 14.2699 9.42958 14.1895 9.78732 14.1895C10.1451 14.1895 10.3064 14.2699 10.5108 14.3717C10.7462 14.4889 11.013 14.6217 11.5232 14.6217C12.0334 14.6217 12.3002 14.4889 12.5356 14.3717C12.7148 14.2824 12.8611 14.2097 13.1356 14.1931C13.1741 14.1908 13.2151 14.1895 13.2591 14.1895C13.4541 14.1895 13.5907 14.2136 13.7077 14.2518C13.8054 14.2837 13.8896 14.3254 13.9825 14.3717C14.2179 14.4889 14.4848 14.6217 14.995 14.6217C15.174 14.6217 15.3191 14.4766 15.3191 14.2976C15.3191 14.1186 15.1739 13.9734 14.9949 13.9734ZM6.79047 10.7608L9.7052 9.9992C9.75892 9.98518 9.81536 9.98518 9.86908 9.9992L12.7838 10.7608C12.957 10.806 13.0607 10.9832 13.0155 11.1563C12.9774 11.3021 12.846 11.3986 12.7021 11.3986C12.675 11.3986 12.6474 11.3952 12.62 11.388L9.78714 10.6478L6.95435 11.388C6.78115 11.4333 6.60404 11.3295 6.55879 11.1563C6.51355 10.9832 6.61727 10.806 6.79047 10.7608Z" fill="white"/>
</g>
<defs>
<clipPath id="clip0_1377_288">
<rect width="11.0638" height="11.0638" fill="white" transform="translate(4.25525 4.25527)"/>
</clipPath>
</defs>
</svg>
