<svg width="47" height="47" viewBox="0 0 47 47" fill="none" xmlns="http://www.w3.org/2000/svg">
<circle cx="23.5" cy="23.5" r="23.5" fill="#2C64E4"/>
<path d="M37.56 25.9999C37.02 23.2399 35.64 20.6599 33.6 18.7399L33.36 18.9799L29.94 22.3999C31.02 23.4799 31.74 24.8599 32.1 26.3599C32.16 26.7199 32.52 27.0199 32.94 27.0199H36.72C36.96 27.0199 37.26 26.8999 37.38 26.7199C37.56 26.5399 37.62 26.2999 37.56 25.9999ZM24.6 14.8999V19.9999C26.22 20.1199 27.78 20.7199 29.04 21.6799L32.7 18.0199C30.42 16.0999 27.54 15.0199 24.6 14.8999ZM14.64 19.0399L14.4 18.7399C12.36 20.7199 10.98 23.2999 10.44 25.9999C10.38 26.2399 10.44 26.5399 10.62 26.7199C10.8 26.8999 11.04 27.0199 11.28 27.0199H15.06C15.48 27.0199 15.84 26.7199 15.9 26.3599C16.26 24.8599 16.98 23.4799 18.06 22.3999L14.64 19.0399ZM15.3 17.9599L18.96 21.6199C18.96 21.6199 19.02 21.5599 19.08 21.5599C19.08 21.1999 19.14 20.8999 19.38 20.6599C19.68 20.2999 20.1 20.0599 20.58 20.0599C20.88 20.0599 21.18 20.1799 21.48 20.3599C22.14 20.1199 22.8 19.9999 23.46 19.9399V14.8399C20.46 15.0199 17.58 16.0999 15.3 17.9599Z" fill="white"/>
<path d="M24 24.2601C23.82 24.2601 23.58 24.2601 23.4 24.3201C22.56 23.4201 21.24 21.9201 20.76 21.3801C20.58 21.2001 20.22 21.3801 20.28 21.6201C20.4 22.0401 20.22 21.3801 21.42 25.4601C20.88 26.0601 20.58 26.8401 20.58 27.6801C20.58 29.5401 22.14 31.1001 24 31.1001C25.92 31.1001 27.42 29.5401 27.42 27.6801C27.42 25.7601 25.86 24.2601 24 24.2601ZM24 29.1801C23.22 29.1801 22.62 28.5801 22.62 27.8001C22.62 27.0201 23.28 26.4201 24 26.4201C24.78 26.4201 25.38 27.0201 25.38 27.8001C25.38 28.5201 24.78 29.1801 24 29.1801Z" fill="white"/>
</svg>
