<svg width="47" height="47" viewBox="0 0 47 47" fill="none" xmlns="http://www.w3.org/2000/svg">
<circle cx="23.5" cy="23.5" r="23.5" fill="#2C64E4"/>
<g clip-path="url(#clip0_1_1070)">
<path d="M27.4753 29.175C26.4126 29.175 25.4397 28.7048 24.9923 27.9693L24 26.3388L23.0066 27.9693C22.5602 28.7048 21.5874 29.175 20.5247 29.175H14.0593V33.9146C14.0593 34.18 14.3074 34.4151 14.6552 34.4682L23.831 35.9848C23.8808 35.9924 23.9307 36 23.9902 36H24H24.0097C24.0596 36 24.1094 35.9924 24.169 35.9848L33.3448 34.4682C33.6828 34.4151 33.9309 34.18 33.9309 33.9146V29.175H27.4753Z" fill="white"/>
<path d="M35.1713 27.6583H27.4732C27.1839 27.6583 26.9207 27.5305 26.7983 27.3301L23.3283 21.6426C23.2081 21.4465 23.2449 21.2158 23.4215 21.0468C23.5981 20.8778 23.8863 20.7987 24.1614 20.8463L33.3438 22.363C33.594 22.4042 33.7988 22.5407 33.8854 22.7248L35.8723 26.8957C35.9557 27.0701 35.9221 27.264 35.7823 27.4168C35.6426 27.5684 35.4151 27.6583 35.1713 27.6583Z" fill="white"/>
<path d="M20.5268 27.6583H12.8287C12.586 27.6583 12.3574 27.5684 12.2188 27.4157C12.079 27.264 12.0454 27.069 12.1288 26.8946L14.1157 22.7238C14.2034 22.5396 14.4071 22.4031 14.6573 22.3619L23.8397 20.8453C24.1159 20.7987 24.403 20.8778 24.5796 21.0457C24.7562 21.2147 24.7919 21.4454 24.6728 21.6415L21.2028 27.329C21.0793 27.5305 20.8161 27.6583 20.5268 27.6583Z" fill="white"/>
<path d="M24 18.6667C23.4009 18.6667 22.9167 18.1813 22.9167 17.5833V11.0833C22.9167 10.4853 23.4009 10 24 10C24.5991 10 25.0834 10.4853 25.0834 11.0833V17.5833C25.0834 18.1813 24.5991 18.6667 24 18.6667Z" fill="white"/>
<path d="M24 18.6667C23.7671 18.6667 23.5342 18.5919 23.3403 18.4413L19.8194 15.733C19.3438 15.369 19.2561 14.6887 19.6201 14.2142C19.9863 13.7397 20.6655 13.6497 21.1389 14.0159L24 16.2162L26.8611 14.0159C27.3356 13.6497 28.0148 13.7407 28.3799 14.2142C28.7439 14.6887 28.6562 15.369 28.1806 15.733L24.6598 18.4413C24.4658 18.5919 24.2329 18.6667 24 18.6667Z" fill="white"/>
</g>
<defs>
<clipPath id="clip0_1_1070">
<rect width="26" height="26" fill="white" transform="translate(11 10)"/>
</clipPath>
</defs>
</svg>
