<svg width="47" height="47" viewBox="0 0 47 47" fill="none" xmlns="http://www.w3.org/2000/svg">
<circle cx="23.5" cy="23.5" r="23.5" fill="#2C64E4"/>
<g clip-path="url(#clip0_1_1323)">
<path d="M26.4753 29.175C25.4126 29.175 24.4397 28.7049 23.9923 27.9693L23 26.3389L22.0066 27.9693C21.5602 28.7049 20.5874 29.175 19.5247 29.175H13.0593V33.9146C13.0593 34.18 13.3074 34.4151 13.6552 34.4682L22.831 35.9849C22.8808 35.9924 22.9307 36 22.9902 36H23H23.0097C23.0596 36 23.1094 35.9924 23.169 35.9849L32.3448 34.4682C32.6828 34.4151 32.9309 34.18 32.9309 33.9146V29.175H26.4753Z" fill="white"/>
<path d="M34.1713 27.6584H26.4732C26.1839 27.6584 25.9207 27.5306 25.7982 27.3302L22.3283 21.6427C22.2081 21.4466 22.2449 21.2158 22.4215 21.0468C22.5981 20.8778 22.8862 20.7988 23.1614 20.8464L32.3437 22.3631C32.594 22.4043 32.7987 22.5408 32.8854 22.7249L34.8722 26.8958C34.9557 27.0702 34.9221 27.2641 34.7823 27.4168C34.6426 27.5685 34.4151 27.6584 34.1713 27.6584Z" fill="white"/>
<path d="M19.5268 27.6583H11.8287C11.586 27.6583 11.3574 27.5684 11.2187 27.4157C11.079 27.264 11.0454 27.069 11.1288 26.8946L13.1157 22.7238C13.2034 22.5396 13.4071 22.4031 13.6573 22.3619L22.8397 20.8453C23.1159 20.7987 23.403 20.8778 23.5796 21.0457C23.7562 21.2147 23.7919 21.4454 23.6727 21.6415L20.2028 27.329C20.0793 27.5305 19.8161 27.6583 19.5268 27.6583Z" fill="white"/>
<path d="M23 18.6667C22.4009 18.6667 21.9167 18.1813 21.9167 17.5833V11.0833C21.9167 10.4853 22.4009 10 23 10C23.5991 10 24.0833 10.4853 24.0833 11.0833V17.5833C24.0833 18.1813 23.5991 18.6667 23 18.6667Z" fill="white"/>
<path d="M26.5197 14.875C26.289 14.875 26.0572 14.8025 25.8611 14.6497L23 12.4505L20.1389 14.6497C19.6655 15.0159 18.9852 14.926 18.6201 14.4525C18.2561 13.978 18.3438 13.2977 18.8194 12.9337L22.3402 10.2254C22.7292 9.92638 23.2708 9.92638 23.6608 10.2254L27.1817 12.9337C27.6562 13.2977 27.745 13.978 27.381 14.4525C27.1665 14.7299 26.8447 14.875 26.5197 14.875Z" fill="white"/>
</g>
<defs>
<clipPath id="clip0_1_1323">
<rect width="26" height="26" fill="white" transform="translate(10 10)"/>
</clipPath>
</defs>
</svg>
