<svg width="47" height="47" viewBox="0 0 47 47" fill="none" xmlns="http://www.w3.org/2000/svg">
<circle cx="23.5" cy="23.5" r="23.5" fill="#2C64E4"/>
<path d="M12.7916 16.5934C13.6624 13.4136 17.1728 12.7268 19.324 13.1524L27.7456 15.0293C27.9224 15.0715 28.0798 15.172 28.1924 15.3146C28.3051 15.4573 28.3663 15.6337 28.3663 15.8155C28.3663 15.9972 28.305 16.1736 28.1924 16.3163C28.0798 16.4589 27.9224 16.5594 27.7456 16.6015C25.2025 17.1906 22.5619 19.364 21.5422 20.27C20.9544 20.802 20.6758 21.4782 20.0106 21.9396C16.294 24.6869 11.665 20.8124 12.7916 16.5934Z" fill="white"/>
<path d="M16.7484 25.9658L21.4366 23.4673C21.5882 23.3898 21.7592 23.3586 21.9284 23.3775C22.0977 23.3964 22.2576 23.4647 22.3883 23.5737C22.5191 23.6828 22.6148 23.828 22.6638 23.9911C22.7127 24.1542 22.7126 24.328 22.6634 24.4911L21.8631 27.0301C21.6996 27.4476 21.6163 28.9743 21.5584 29.5124C21.4456 31.781 19.3015 33.66 17.1059 32.7907C13.8791 31.7041 13.7583 27.4912 16.7484 25.9658Z" fill="white"/>
<path d="M26.5553 24.2757C30.8656 20.7495 32.3931 17.7188 32.7588 16.8698C32.83 16.7157 32.9494 16.589 33.0989 16.5087C33.2484 16.4284 33.42 16.3988 33.5877 16.4245C33.7555 16.4502 33.9104 16.5297 34.029 16.651C34.1477 16.7724 34.2237 16.929 34.2456 17.0973C34.2497 17.1704 35.3794 27.1167 35.375 27.1843C35.2409 29.167 34.5625 30.6579 33.36 31.6126C30.8058 33.4592 27.5405 33.0175 25.7834 30.9302C25.0266 29.9365 24.6842 28.6882 24.8281 27.4474C24.9721 26.2066 25.5911 25.0698 26.5553 24.2757Z" fill="white"/>
</svg>
