<svg width="47" height="47" viewBox="0 0 47 47" fill="none" xmlns="http://www.w3.org/2000/svg">
<circle cx="23.5" cy="23.5" r="23.5" fill="#2C64E4"/>
<g clip-path="url(#clip0_1_1829)">
<path d="M36.6393 30.7009L34.6413 26.4833C34.3899 25.9507 33.5166 25.9507 33.2652 26.4833L31.2791 30.68C31.0351 31.1249 30.9064 31.6307 30.9064 32.141C30.9064 33.8213 32.2729 35.1878 33.9533 35.1878C35.6336 35.1878 37.0001 33.8213 37.0001 32.141C37 31.6382 36.875 31.1412 36.6393 30.7009Z" fill="white"/>
<path d="M34.9052 23.9051C34.8569 23.5703 34.5943 23.307 34.2596 23.2587L26.535 22.1608L25.713 19.0938C25.5575 18.5121 25.17 18.0063 24.6486 17.7058L21.897 16.1172L22.6587 14.7982C23.7408 15.215 25.0485 16.7519 25.6781 15.6618C25.8886 15.2973 25.7636 14.8317 25.3991 14.6212L20.1223 11.5744C19.7578 11.3631 19.2914 11.4881 19.0816 11.8533C18.8711 12.2178 18.9961 12.6835 19.3606 12.894L21.3392 14.0364L20.5776 15.3554L17.3855 13.5124L15.6749 11.5817C14.6381 10.4151 12.7672 10.603 11.9861 11.9559L11.3063 13.1326C10.8146 13.9859 10.9224 15.054 11.5763 15.7912L13.6793 18.163L12.8111 19.6668L27.1918 27.9694L34.4663 24.7062C34.7743 24.5664 34.9528 24.2398 34.9052 23.9051ZM14.4822 16.7726L12.7159 14.781C12.4979 14.5348 12.4622 14.1785 12.6259 13.8943L13.3058 12.7175C13.565 12.2677 14.1901 12.2034 14.5354 12.5925L15.9643 14.2052C15.876 14.3582 14.3872 16.9371 14.4822 16.7726Z" fill="white"/>
<path d="M12.0493 20.9864L11.6685 21.6461C11.0377 22.7398 11.4113 24.1355 12.5053 24.7673L21.0611 29.7072C21.6998 30.0758 22.4811 30.1129 23.1498 29.8083L25.4875 28.7448L12.0493 20.9864Z" fill="white"/>
</g>
<defs>
<clipPath id="clip0_1_1829">
<rect width="26" height="26" fill="white" transform="translate(11 10)"/>
</clipPath>
</defs>
</svg>
