<svg width="47" height="47" viewBox="0 0 47 47" fill="none" xmlns="http://www.w3.org/2000/svg">
<circle cx="23.5" cy="23.5" r="23.5" fill="#2C64E4"/>
<g clip-path="url(#clip0_1_2087)">
<path d="M25.296 12.9538C25.296 12.2288 24.7061 11.6389 23.981 11.6389H22.0189C21.2939 11.6389 20.704 12.2288 20.704 12.9538V14.9197H25.296V12.9538Z" fill="white"/>
<path d="M23.1926 19.8657L30.8146 21.8572V16.9422C30.8146 16.6671 30.5908 16.4434 30.3158 16.4434H15.6843C15.4092 16.4434 15.1855 16.6671 15.1855 16.9422V21.8572L22.8075 19.8657C22.9337 19.8327 23.0663 19.8327 23.1926 19.8657Z" fill="white"/>
<path d="M35.2383 32.8376C34.3976 32.8376 34.0184 32.6488 33.5382 32.4096C33.3128 32.2974 33.0751 32.179 32.7914 32.0782C32.3976 31.9382 31.915 31.832 31.2536 31.8228L34.0425 24.8021C34.1043 24.6354 34.0549 24.4966 34.0197 24.4284C33.9843 24.3596 33.8988 24.2375 33.7245 24.192L23 21.3898L12.2756 24.192C12.1012 24.2375 12.0157 24.3596 11.9803 24.4284C11.9451 24.4966 11.8957 24.6356 11.9576 24.8024L14.7403 31.8229C14.0792 31.8328 13.5971 31.9397 13.2035 32.0802C12.9223 32.1806 12.6861 32.2981 12.4621 32.4097C11.9819 32.6488 11.6026 32.8377 10.7618 32.8377C10.3411 32.8377 10.0001 33.1787 10.0001 33.5994C10.0001 34.0201 10.3411 34.3611 10.7618 34.3611C11.9608 34.3611 12.5879 34.0489 13.1411 33.7735C13.3567 33.6662 13.5521 33.5692 13.7778 33.4946C14.055 33.4031 14.378 33.3455 14.8414 33.3455C14.9472 33.3455 15.0456 33.3485 15.1379 33.3543C15.7792 33.3939 16.1219 33.5645 16.5417 33.7735C17.0949 34.049 17.722 34.3612 18.921 34.3612C20.12 34.3612 20.747 34.049 21.3003 33.7735C21.7804 33.5344 22.1597 33.3455 23.0004 33.3455C23.8411 33.3455 24.2203 33.5344 24.7005 33.7735C25.2537 34.049 25.8807 34.3612 27.0797 34.3612C28.2787 34.3612 28.9057 34.049 29.4589 33.7735C29.8801 33.5638 30.2237 33.3929 30.8688 33.3539C30.9593 33.3485 31.0556 33.3455 31.1591 33.3455C31.6174 33.3455 31.9383 33.402 32.2134 33.4918C32.4429 33.5667 32.6408 33.6648 32.8592 33.7735C33.4124 34.049 34.0394 34.3612 35.2384 34.3612C35.6591 34.3612 36.0001 34.0201 36.0001 33.5994C36.0001 33.1788 35.659 32.8376 35.2383 32.8376ZM15.9578 25.288L22.8074 23.4982C22.9337 23.4653 23.0663 23.4653 23.1926 23.4982L30.0422 25.288C30.4492 25.3943 30.693 25.8105 30.5866 26.2175C30.4972 26.56 30.1883 26.7869 29.8502 26.7869C29.7865 26.7869 29.7217 26.7788 29.6571 26.7619L23 25.0225L16.3429 26.7619C15.9359 26.8683 15.5197 26.6245 15.4134 26.2175C15.3071 25.8105 15.5508 25.3943 15.9578 25.288Z" fill="white"/>
</g>
<defs>
<clipPath id="clip0_1_2087">
<rect width="26" height="26" fill="white" transform="translate(10 10)"/>
</clipPath>
</defs>
</svg>
