<svg width="12" height="12" viewBox="0 0 12 12" fill="none" xmlns="http://www.w3.org/2000/svg">
<path d="M11 6C11 8.76143 8.76143 11 6 11M11 6C11 3.23857 8.76143 1 6 1M11 6H9.92743M6 11C3.23857 11 1 8.76143 1 6M6 11L6 10.1349M1 6C1 3.23857 3.23857 1 6 1M1 6H1.8651M6 1L6 1.86514M2.46445 2.46443L3.0154 3.01539M8.98457 8.98449L9.53555 9.53544M9.53553 2.46441L8.98457 3.01539M3.0154 8.98464L2.46445 9.53562M6 3.10992V6H7.96371" stroke="#393939" stroke-width="0.878906" stroke-miterlimit="10" stroke-linecap="round" stroke-linejoin="round"/>
</svg>
