<svg width="78" height="24" viewBox="0 0 78 24" fill="none" xmlns="http://www.w3.org/2000/svg">
<path d="M12.5156 22.2188L12.4781 22.2127C12.4834 22.2167 12.4895 22.2194 12.4961 22.2205C12.5026 22.2215 12.5094 22.2209 12.5156 22.2188Z" fill="white"/>
<path d="M21.0422 8.80219C21.0315 8.74563 21.0022 8.69426 20.959 8.65625C20.9158 8.61823 20.8611 8.59574 20.8036 8.59235C20.7462 8.58895 20.6892 8.60485 20.6418 8.63752C20.5944 8.67019 20.5593 8.71775 20.542 8.77266C20.5255 8.82479 20.4929 8.87033 20.4488 8.90276C20.4048 8.93518 20.3516 8.95281 20.2969 8.95313H19.5717C19.5248 8.95317 19.4788 8.94037 19.4386 8.91609L18.3895 8.28703C18.3494 8.26276 18.3033 8.24995 18.2564 8.25H16.5783C16.5272 8.24995 16.4773 8.26512 16.4349 8.29359L14.3653 9.67313C14.3295 9.69695 14.3003 9.72931 14.2801 9.76728C14.26 9.80526 14.2497 9.84765 14.25 9.89063V11.8472C14.25 11.8941 14.2627 11.9401 14.2868 11.9803C14.3109 12.0205 14.3455 12.0534 14.3869 12.0755L17.1005 13.5239C17.1412 13.5458 17.1754 13.5783 17.1995 13.6178C17.2236 13.6574 17.2366 13.7026 17.2374 13.7489L17.25 14.85C17.2507 14.8956 17.2635 14.9402 17.2869 14.9793C17.3104 15.0184 17.3437 15.0506 17.3836 15.0727L18.4739 15.6759C18.5143 15.6984 18.548 15.7312 18.5715 15.771C18.595 15.8108 18.6074 15.8561 18.6075 15.9023V18.1805C18.6075 18.2303 18.6219 18.279 18.6489 18.3208C18.6759 18.3626 18.7144 18.3958 18.7598 18.4163C18.8052 18.4367 18.8555 18.4437 18.9047 18.4363C18.954 18.4289 19 18.4075 19.0374 18.3745C19.477 17.9873 20.1075 17.422 20.1914 17.2927C20.3302 17.078 20.4603 16.8581 20.5819 16.6331C20.8336 16.1669 21.0468 15.6809 21.2194 15.18C21.8138 13.4592 21.3441 10.3659 21.0422 8.80219Z" fill="white"/>
<path d="M13.425 14.1938L10.5502 12.0375C10.5177 12.0132 10.4782 12 10.4377 12H9.0736C9.05026 12 9.02715 11.9954 9.00559 11.9865C8.98404 11.9776 8.96445 11.9645 8.94797 11.948L8.30485 11.3048C8.28742 11.2874 8.26674 11.2736 8.24397 11.2642C8.22121 11.2548 8.19682 11.25 8.17219 11.25H5.67891C5.64377 11.25 5.60942 11.2396 5.58021 11.2201C5.55099 11.2005 5.52822 11.1728 5.51477 11.1403C5.50132 11.1079 5.49781 11.0721 5.50466 11.0377C5.51152 11.0032 5.52844 10.9716 5.55328 10.9467L5.94797 10.552C5.96445 10.5355 5.98404 10.5224 6.00559 10.5135C6.02715 10.5046 6.05026 10.5 6.0736 10.5H7.59094C7.67266 10.5 7.75215 10.4733 7.8173 10.424C7.88246 10.3746 7.92971 10.3054 7.95188 10.2267L8.27485 9.07828C8.28173 9.0536 8.2936 9.0306 8.30973 9.01068C8.32585 8.99077 8.34589 8.97437 8.3686 8.9625L9.65625 8.29969C9.68523 8.28472 9.70952 8.26206 9.72647 8.23419C9.74342 8.20633 9.75237 8.17434 9.75235 8.14172V7.55578C9.7524 7.51943 9.76352 7.48395 9.78422 7.45407L10.4686 6.46875C10.4891 6.43915 10.5183 6.41657 10.552 6.40406L11.5097 6.04453C11.5436 6.03184 11.5728 6.0091 11.5934 5.97936C11.614 5.94963 11.625 5.91431 11.625 5.87813V5.34375C11.625 5.31445 11.6178 5.2856 11.604 5.25977C11.5901 5.23393 11.5702 5.2119 11.5458 5.19563L10.5858 4.55719C10.5594 4.53984 10.5289 4.52975 10.4974 4.52794C10.4659 4.52612 10.4344 4.53266 10.4063 4.54688L9.09938 5.20032C9.06948 5.21508 9.03603 5.2211 9.00286 5.21771C8.96969 5.21431 8.93816 5.20162 8.91188 5.1811L8.29219 4.69125C8.27104 4.67425 8.25406 4.65263 8.24254 4.62806C8.23103 4.60349 8.22527 4.57661 8.22572 4.54948C8.22618 4.52235 8.23282 4.49568 8.24515 4.4715C8.25749 4.44733 8.27518 4.4263 8.29688 4.41L8.80032 4.03922C8.82311 4.0225 8.84157 4.00058 8.85416 3.97527C8.86675 3.94997 8.8731 3.92202 8.87269 3.89376C8.87228 3.8655 8.86511 3.83774 8.85178 3.81282C8.83846 3.78789 8.81937 3.76651 8.7961 3.75047L8.01188 3.20344C7.98473 3.18433 7.95276 3.17323 7.91961 3.1714C7.88646 3.16958 7.85346 3.17711 7.82438 3.19313C7.54078 3.34828 6.70875 3.80766 6.41344 4.01438C5.04708 4.97256 3.94747 6.26318 3.21844 7.76438C3.13313 7.94063 3.02766 8.12016 3.01735 8.31375C3.00703 8.50735 2.85516 8.93953 2.79188 9.11438C2.78334 9.13801 2.77993 9.16319 2.78187 9.18824C2.78381 9.2133 2.79106 9.23765 2.80313 9.25969L4.4761 12.3338C4.49115 12.3617 4.51351 12.385 4.54078 12.4013L6.30094 13.4578C6.32377 13.4714 6.34326 13.49 6.35794 13.5121C6.37263 13.5343 6.38215 13.5595 6.38578 13.5858L6.73828 16.1423C6.74173 16.1668 6.75021 16.1904 6.7632 16.2114C6.77619 16.2325 6.7934 16.2506 6.81375 16.2647L8.18719 17.2088C8.22698 17.2361 8.25468 17.2777 8.26453 17.325L8.99297 20.7844C8.99705 20.8047 9.00484 20.8241 9.01594 20.8416C9.08438 20.9522 9.35719 21.3572 9.68625 21.4172C9.65578 21.4256 9.6286 21.4448 9.59813 21.4538C9.67717 21.4677 9.75541 21.4858 9.8325 21.5081C9.92625 21.5334 10.02 21.555 10.1138 21.5752C10.2605 21.6042 10.275 21.6267 10.3453 21.4964C10.4391 21.322 10.5464 21.262 10.6266 21.2405C10.6596 21.2328 10.6899 21.216 10.7139 21.192C10.7378 21.168 10.7545 21.1376 10.762 21.1045L11.2341 18.9164C11.244 18.8705 11.2708 18.8301 11.3091 18.803L13.4184 17.3077C13.443 17.2903 13.4629 17.2673 13.4767 17.2407C13.4905 17.214 13.4977 17.1844 13.4977 17.1544V14.3438C13.4979 14.3148 13.4915 14.2863 13.4789 14.2602C13.4663 14.2342 13.4479 14.2115 13.425 14.1938Z" fill="white"/>
<path d="M12.2813 2.25C12.2813 2.25 12.1102 2.25984 12.0755 2.26078C11.8214 2.26828 11.568 2.28578 11.3152 2.31328C10.3936 2.41326 9.491 2.64451 8.63486 3C8.74876 3.07875 8.55283 3.15094 8.55283 3.15094L8.85939 3.75H10.5L11.625 4.3125L12.6094 3.75L12.2813 2.25Z" fill="white"/>
<path d="M16.6045 5.62781L17.3597 4.97156C17.3833 4.95105 17.4014 4.92494 17.4124 4.89562C17.4234 4.86631 17.4268 4.83471 17.4224 4.80372C17.4181 4.77273 17.406 4.74333 17.3873 4.7182C17.3687 4.69307 17.344 4.67301 17.3156 4.65985L16.4339 4.25063C16.3891 4.22973 16.3379 4.22737 16.2914 4.24405C16.2448 4.26072 16.2068 4.2951 16.1855 4.33969L15.8222 5.09953C15.8024 5.14107 15.7986 5.18844 15.8115 5.2326C15.8244 5.27677 15.853 5.31466 15.892 5.33906L16.3823 5.64563C16.4164 5.66682 16.4564 5.67653 16.4964 5.67332C16.5364 5.67012 16.5743 5.65417 16.6045 5.62781Z" fill="white"/>
<path d="M20.1394 6.5939L19.8661 6.17203C19.8619 6.16546 19.8581 6.1589 19.8544 6.15187C19.8052 6.05109 19.3978 5.22843 19.0575 4.90922C18.802 4.66781 18.7294 4.73718 18.7092 4.79062C18.6977 4.82017 18.6784 4.84608 18.6534 4.86562L17.3016 5.95828C17.2683 5.98521 17.2267 5.99994 17.1839 6H16.4841C16.4594 5.99998 16.435 6.00481 16.4123 6.01422C16.3895 6.02363 16.3688 6.03743 16.3514 6.05484L15.7889 6.61734C15.7715 6.63475 15.7576 6.65543 15.7482 6.67819C15.7388 6.70096 15.7339 6.72536 15.7339 6.75C15.7339 6.77464 15.7388 6.79904 15.7482 6.8218C15.7576 6.84456 15.7715 6.86524 15.7889 6.88265L16.3514 7.44515C16.3688 7.46256 16.3895 7.47636 16.4123 7.48577C16.435 7.49518 16.4594 7.50002 16.4841 7.5H20.0077C20.033 7.50002 20.058 7.49492 20.0813 7.485C20.1046 7.47508 20.1256 7.46056 20.1431 7.44229C20.1607 7.42403 20.1743 7.40241 20.1832 7.37873C20.1922 7.35505 20.1962 7.32981 20.1952 7.30453L20.1694 6.68812C20.168 6.6546 20.1576 6.62206 20.1394 6.5939Z" fill="white"/>
<path d="M12 3.375C13.9954 3.37483 15.9292 4.06657 17.4718 5.33235C19.0144 6.59812 20.0704 8.35962 20.4599 10.3167C20.8493 12.2738 20.5481 14.3053 19.6076 16.0652C18.6671 17.8251 17.1454 19.2045 15.3019 19.9682C13.4584 20.732 11.4071 20.8329 9.49757 20.2538C7.58801 19.6747 5.93832 18.4513 4.8296 16.7923C3.72088 15.1332 3.22173 13.141 3.4172 11.1551C3.61266 9.16928 4.49065 7.31264 5.90156 5.90156C6.70049 5.09807 7.65087 4.46104 8.69767 4.02735C9.74448 3.59366 10.8669 3.37193 12 3.375ZM12 1.5C6.20156 1.5 1.5 6.20156 1.5 12C1.5 17.7984 6.20156 22.5 12 22.5C17.7984 22.5 22.5 17.7984 22.5 12C22.5 6.20156 17.7984 1.5 12 1.5Z" fill="white"/>
<path d="M41.8253 10.0696C41.7424 9.80114 41.6281 9.56084 41.4822 9.34872C41.3397 9.13329 41.1674 8.94934 40.9652 8.79688C40.7663 8.64441 40.5376 8.53007 40.2791 8.45383C40.0206 8.37429 39.7389 8.33452 39.4339 8.33452C38.8871 8.33452 38.3999 8.47206 37.9723 8.74716C37.5447 9.02225 37.2083 9.42661 36.9631 9.96023C36.7211 10.4905 36.6001 11.1368 36.6001 11.8991C36.6001 12.6681 36.7211 13.3194 36.9631 13.853C37.205 14.3866 37.5414 14.7926 37.9723 15.071C38.4032 15.3461 38.9036 15.4837 39.4737 15.4837C39.9908 15.4837 40.4382 15.3842 40.8161 15.1854C41.1972 14.9865 41.4905 14.7048 41.696 14.3402C41.9015 13.9723 42.0043 13.5414 42.0043 13.0476L42.4219 13.1122H39.6577V11.6705H43.7891V12.8935C43.7891 13.7652 43.6035 14.5192 43.2322 15.1555C42.861 15.7919 42.3506 16.2824 41.701 16.6271C41.0514 16.9685 40.3056 17.1392 39.4638 17.1392C38.5258 17.1392 37.7022 16.9287 36.9929 16.5078C36.2869 16.0836 35.7351 15.482 35.3374 14.7031C34.9429 13.9209 34.7457 12.9929 34.7457 11.919C34.7457 11.0971 34.8617 10.3629 35.0938 9.71662C35.3291 9.07031 35.6572 8.52178 36.0781 8.07102C36.4991 7.61695 36.9929 7.27225 37.5597 7.03693C38.1264 6.7983 38.7429 6.67898 39.4091 6.67898C39.9725 6.67898 40.4979 6.76184 40.9851 6.92756C41.4723 7.08996 41.9048 7.32197 42.2827 7.62358C42.6638 7.92519 42.977 8.28314 43.2223 8.69744C43.4676 9.11174 43.6283 9.56913 43.7045 10.0696H41.8253ZM47.2928 6.81818V17H45.4931V6.81818H47.2928ZM52.4744 17.1491C51.7287 17.1491 51.0824 16.9851 50.5355 16.657C49.9886 16.3288 49.5644 15.8698 49.2628 15.2798C48.9645 14.6899 48.8153 14.0005 48.8153 13.2116C48.8153 12.4228 48.9645 11.7318 49.2628 11.1385C49.5644 10.5452 49.9886 10.0845 50.5355 9.75639C51.0824 9.42827 51.7287 9.2642 52.4744 9.2642C53.2202 9.2642 53.8665 9.42827 54.4134 9.75639C54.9602 10.0845 55.3828 10.5452 55.6811 11.1385C55.9827 11.7318 56.1335 12.4228 56.1335 13.2116C56.1335 14.0005 55.9827 14.6899 55.6811 15.2798C55.3828 15.8698 54.9602 16.3288 54.4134 16.657C53.8665 16.9851 53.2202 17.1491 52.4744 17.1491ZM52.4844 15.7074C52.8887 15.7074 53.2268 15.5964 53.4986 15.3743C53.7704 15.1489 53.9725 14.8473 54.1051 14.4695C54.241 14.0916 54.3089 13.6707 54.3089 13.2067C54.3089 12.7393 54.241 12.3168 54.1051 11.9389C53.9725 11.5578 53.7704 11.2545 53.4986 11.0291C53.2268 10.8037 52.8887 10.6911 52.4844 10.6911C52.0701 10.6911 51.7254 10.8037 51.4503 11.0291C51.1785 11.2545 50.9747 11.5578 50.8388 11.9389C50.7062 12.3168 50.6399 12.7393 50.6399 13.2067C50.6399 13.6707 50.7062 14.0916 50.8388 14.4695C50.9747 14.8473 51.1785 15.1489 51.4503 15.3743C51.7254 15.5964 52.0701 15.7074 52.4844 15.7074ZM57.7406 17V6.81818H59.5403V10.6264H59.6149C59.7077 10.4408 59.8386 10.2436 60.0076 10.0348C60.1767 9.82268 60.4054 9.64205 60.6937 9.4929C60.9821 9.34044 61.35 9.2642 61.7974 9.2642C62.3874 9.2642 62.9193 9.41501 63.3933 9.71662C63.8706 10.0149 64.2484 10.4574 64.5268 11.044C64.8085 11.6274 64.9494 12.3433 64.9494 13.1918C64.9494 14.0303 64.8118 14.7429 64.5368 15.3295C64.2617 15.9162 63.8871 16.3636 63.4132 16.6719C62.9392 16.9801 62.4023 17.1342 61.8024 17.1342C61.3649 17.1342 61.002 17.0613 60.7136 16.9155C60.4252 16.7696 60.1932 16.594 60.0176 16.3885C59.8452 16.1797 59.711 15.9825 59.6149 15.7969H59.5105V17H57.7406ZM59.5055 13.1818C59.5055 13.6757 59.5751 14.1082 59.7143 14.4794C59.8568 14.8506 60.0607 15.1406 60.3258 15.3494C60.5943 15.5549 60.9191 15.6577 61.3002 15.6577C61.698 15.6577 62.0311 15.5516 62.2995 15.3395C62.568 15.1241 62.7702 14.8307 62.9061 14.4595C63.0453 14.085 63.1149 13.6591 63.1149 13.1818C63.1149 12.7079 63.0469 12.2869 62.911 11.919C62.7752 11.5511 62.573 11.2628 62.3045 11.054C62.036 10.8452 61.7013 10.7408 61.3002 10.7408C60.9158 10.7408 60.5893 10.8419 60.3208 11.044C60.0524 11.2462 59.8485 11.5296 59.7093 11.8942C59.5734 12.2588 59.5055 12.688 59.5055 13.1818ZM68.6768 17.1541C68.1929 17.1541 67.7571 17.0679 67.3693 16.8956C66.9848 16.7199 66.6799 16.4614 66.4545 16.12C66.2325 15.7786 66.1214 15.3577 66.1214 14.8572C66.1214 14.4264 66.201 14.0701 66.3601 13.7884C66.5192 13.5066 66.7363 13.2812 67.0114 13.1122C67.2865 12.9432 67.5964 12.8156 67.9411 12.7294C68.2891 12.6399 68.6487 12.5753 69.0199 12.5355C69.4673 12.4891 69.8303 12.4477 70.1087 12.4112C70.3871 12.3714 70.5893 12.3118 70.7152 12.2322C70.8445 12.1494 70.9091 12.0218 70.9091 11.8494V11.8196C70.9091 11.4451 70.7981 11.1551 70.576 10.9496C70.3539 10.7441 70.0341 10.6413 69.6165 10.6413C69.1757 10.6413 68.826 10.7375 68.5675 10.9297C68.3123 11.1219 68.1399 11.349 68.0504 11.6108L66.37 11.3722C66.5026 10.9081 66.7214 10.5204 67.0263 10.2088C67.3312 9.89394 67.7041 9.65862 68.1449 9.50284C68.5857 9.34375 69.0729 9.2642 69.6065 9.2642C69.9744 9.2642 70.3407 9.30729 70.7053 9.39347C71.0698 9.47964 71.4029 9.62216 71.7045 9.82102C72.0062 10.0166 72.2481 10.2834 72.4304 10.6214C72.616 10.9595 72.7088 11.3821 72.7088 11.8892V17H70.9787V15.951H70.919C70.8097 16.1631 70.6555 16.362 70.4567 16.5476C70.2611 16.7299 70.0142 16.8774 69.7159 16.9901C69.4209 17.0994 69.0746 17.1541 68.6768 17.1541ZM69.1442 15.8317C69.5054 15.8317 69.8187 15.7604 70.0838 15.6179C70.349 15.4721 70.5528 15.2798 70.6953 15.0412C70.8411 14.8026 70.9141 14.5424 70.9141 14.2607V13.3608C70.8577 13.4072 70.7616 13.4503 70.6257 13.4901C70.4931 13.5298 70.344 13.5646 70.1783 13.5945C70.0125 13.6243 69.8485 13.6508 69.6861 13.674C69.5237 13.6972 69.3828 13.7171 69.2635 13.7337C68.995 13.7701 68.7547 13.8298 68.5426 13.9126C68.3305 13.9955 68.1631 14.1115 68.0405 14.2607C67.9179 14.4065 67.8565 14.5954 67.8565 14.8274C67.8565 15.1589 67.9775 15.4091 68.2195 15.5781C68.4614 15.7472 68.7696 15.8317 69.1442 15.8317ZM76.3182 6.81818V17H74.5185V6.81818H76.3182Z" fill="white"/>
</svg>
