<svg width="18" height="39" viewBox="0 0 18 39" fill="none" xmlns="http://www.w3.org/2000/svg">
<mask id="path-1-inside-1_1_257" fill="white">
<path fill-rule="evenodd" clip-rule="evenodd" d="M1.5 0V1.5V3V27C1.5 32.799 6.20101 37.5 12 37.5H15H16.5H18V39H16.5H12C5.37258 39 0 33.6274 0 27V1.5V0H1.5Z"/>
</mask>
<path d="M1.5 0H2.5V-1H1.5V0ZM18 37.5H19V36.5H18V37.5ZM18 39V40H19V39H18ZM0 0V-1H-1V0H0ZM2.5 1.5V0H0.5V1.5H2.5ZM0.5 1.5V3H2.5V1.5H0.5ZM0.5 3V27H2.5V3H0.5ZM0.5 27C0.5 33.3513 5.64873 38.5 12 38.5V36.5C6.75329 36.5 2.5 32.2467 2.5 27H0.5ZM12 38.5H15V36.5H12V38.5ZM15 38.5H16.5V36.5H15V38.5ZM18 36.5H16.5V38.5H18V36.5ZM19 39V37.5H17V39H19ZM16.5 40H18V38H16.5V40ZM12 40H16.5V38H12V40ZM-1 27C-1 34.1797 4.8203 40 12 40V38C5.92487 38 1 33.0751 1 27H-1ZM-1 1.5V27H1V1.5H-1ZM-1 0V1.5H1V0H-1ZM1.5 -1H0V1H1.5V-1Z" fill="#2E3A54" mask="url(#path-1-inside-1_1_257)"/>
</svg>
